{"title":"X-Men.Days.Of.Future.Past.2014.1080p.BluRay.DTS.x264-GKNByNW","uid":11241001,"size":13439651768,"categoryP":"video","categoryS":"hd___movies","magnet":"?xt=urn:btih:17bd071b55ac115343610839c3ffb79262964f40&amp;dn=X-Men.Days.Of.Future.Past.2014.1080p.BluRay.DTS.x264-GKNByNW&amp;tr=udp%3A%2F%2Ftracker.openbittorrent.com%3A80&amp;tr=udp%3A%2F%2Fopen.demonii.com%3A1337&amp;tr=udp%3A%2F%2Ftracker.coppersurfer.tk%3A6969&amp;tr=udp%3A%2F%2Fexodus.desync.com%3A6969","seeders":0,"leechers":1,"uploader":"GKNByNW","files":8,"time":1413674429,"description":"Release Title : X-Men.Days.Of.Future.Past.2014.1080p.BluRay.DTS.x264-GKNByNW\nRelease Date : 23 May 2014 (USA)\nRelease Length : 2:11:35\nGenre : Action | Adventure | Sci-Fi\nLanguage : English\nSource : X-Men.Days.of.Future.Past.2014.1080p.BluRay.AVC.DTS-HD.MA.7.1\nTotal Size : 12.5GB\n\nimdB\n---- &lt;a href=&quot;\nhttp://www.imdb.com/title/tt1877832/&quot; rel=&quot;nofollow&quot; target=&quot;_NEW&quot;&gt;\nhttp://www.imdb.com/title/tt1877832/&lt;/a&gt;\n\nStoryline: Sentinels, robots that were created for the purpose\nof hunting down mutants were released in 1973. 50 years later\nthe Sentinels would also hunt humans who aid mutants. Charles\nXavier and his X-Men try their best to deal with the Sentinels\nbut they are able to adapt and deal with all mutant abilities.\nCharles decides to go back in time and change things. He asks\nKitty Pryde who can send a person's consciousness into the\nperson's past to send him but she can only send someone back\na few weeks because if she sends someone back further it could\nharm them. So Logan decides to go back himself because he\nmight be able to withstand it. So Charles tells him that it's\nMystique who's responsible because when she learned about the\nSentinels she sought out Bolivar Trask the man who created\nthem and killed him. She would be caught and studied and her\nability to change was somehow added to the Sentinels which is\nwhy they can adapt. Logan must go to the younger Charles and\nask him to help.\n\nCast\n----\nHugh Jackman\t\t~\tLogan / Wolverine\nJames McAvoy\t\t~\tCharles Xavier\nMichael Fassbender\t~\tErik Lehnsherr\nJennifer Lawrence\t~\tRaven / Mystique\nHalle Berry\t\t~\tStorm\nNicholas Hoult\t\t~\tHank / Beast\nAnna Paquin\t\t~\tRogue\nEllen Page\t\t~\tKitty Pryde\nPeter Dinklage\t\t~\tDr. Bolivar Trask\nShawn Ashmore\t\t~\tBobby / Iceman\nOmar Sy\t\t\t~\tBishop\nEvan Peters\t\t~\tPeter / Quicksilver\nJosh Helman\t\t~\tMaj. Bill Stryker\nDaniel Cudmore\t\t~\tColossus\nBingbing Fan\t\t~\tBlink\n\n~~~~~~~~~~~~~~~~~~~~\n\nVideo Information\n-----------------\nID : 1\nFormat : AVC\nFormat/Info : Advanced Video Codec\nFormat profile : &lt;a class=&quot;__cf_email__&quot; href=&quot;/cdn-cgi/l/email-protection&quot; data-cfemail=&quot;b1f9d8d6d9f1fd859f80&quot;&gt;[email&amp;#160;protected]&lt;/a&gt;&lt;script cf-hash='f9e31' type=&quot;text/javascript&quot;&gt;\n/* &lt;![CDATA[ */!function(){try{var t=&quot;currentScript&quot;in document?document.currentScript:function(){for(var t=document.getElementsByTagName(&quot;script&quot;),e=t.length;e--;)if(t[e].getAttribute(&quot;cf-hash&quot;))return t[e]}();if(t&amp;&amp;t.previousSibling){var e,r,n,i,c=t.previousSibling,a=c.getAttribute(&quot;data-cfemail&quot;);if(a){for(e=&quot;&quot;,r=parseInt(a.substr(0,2),16),n=2;a.length-n;n+=2)i=parseInt(a.substr(n,2),16)^r,e+=String.fromCharCode(i);e=document.createTextNode(e),c.parentNode.replaceChild(e,c)}}}catch(u){}}();/* ]]&gt; */&lt;/script&gt;\nFormat settings, CABAC : Yes\nFormat settings, ReFrames : 5 frames\nCodec ID : V_MPEG4/ISO/AVC\nDuration : 2h 11mn\nBit rate : 12.1 Mbps\nWidth : 1 920 pixels\nHeight : 800 pixels\nDisplay aspect ratio : 2.40:1\nFrame rate mode : Constant\nFrame rate : 23.976 fps\nColor space : YUV\nChroma subsampling : 4:2:0\nBit depth : 8 bits\nScan type : Progressive\nBits/(Pixel*Frame) : 0.328\nStream size : 10.9 GiB (87%)\nWriting library : x264 core 138 r2358 9e941d1\n\nAudio Information\n-----------------\nID : 2\nFormat : DTS\nFormat/Info : Digital Theater Systems\nFormat profile : ES\nMode : 16\nFormat settings, Endianness : Big\nCodec ID : A_DTS\nDuration : 2h 11mn\nBit rate mode : Constant\nBit rate : 1 509 Kbps\nChannel(s) : 6 channels\nChannel positions : Front: L C R, Side: L R, LFE\nSampling rate : 48.0 KHz\nBit depth : 24 bits\nCompression mode : Lossy\nStream size : 1.39 GiB (11%)\nTitle : English\nLanguage : English\nDefault : Yes\nForced : No\n\nText #1 Information\n----------------\nID : 3\nFormat : PGS\nMuxing mode : zlib\nCodec ID : S_HDMV/PGS\nCodec ID/Info : The same subtitle format used on BDs/HD-DVDs\nTitle : English SDH\nLanguage : English\nDefault : No\nForced : No\n\nChapters : Yes\n\n~~~~~~~~~~~~~~~~~~~~\n\nPlease seed as much as you take.\n\n---==* GKNByNW *==","torrent":{"xt":"urn:btih:17bd071b55ac115343610839c3ffb79262964f40","amp;dn":"X-Men.Days.Of.Future.Past.2014.1080p.BluRay.DTS.x264-GKNByNW","amp;tr":["udp%3A%2F%2Ftracker.openbittorrent.com%3A80","udp%3A%2F%2Fopen.demonii.com%3A1337","udp%3A%2F%2Ftracker.coppersurfer.tk%3A6969","udp%3A%2F%2Fexodus.desync.com%3A6969"],"infoHash":"17bd071b55ac115343610839c3ffb79262964f40","infoHashBuffer":{"type":"Buffer","data":[23,189,7,27,85,172,17,83,67,97,8,57,195,255,183,146,98,150,79,64]},"announce":[],"urlList":[]}}